<?xml version="1.0" encoding="UTF-8"?>
<svg version="1.1" xmlns="http://www.w3.org/2000/svg" width="508" height="507">
<path d="M0 0 C1.33478048 0.36453942 2.66966217 0.72870838 4.00463867 1.0925293 C7.48695857 2.04565473 10.96514383 3.01300543 14.4418335 3.9864502 C16.4275991 4.54223608 18.41416875 5.09506259 20.40087891 5.64746094 C48.69741611 13.55379295 76.87555039 22.00194746 103.5 34.5625 C104.21285156 34.89282227 104.92570313 35.22314453 105.66015625 35.56347656 C132.86645291 48.23615906 157.38474116 65.88076192 181.5 83.5625 C182.29567383 84.14418945 183.09134766 84.72587891 183.91113281 85.32519531 C191.9429738 91.19913354 199.95850853 97.09608289 207.875 103.125 C209.34066406 104.24068359 209.34066406 104.24068359 210.8359375 105.37890625 C219.08477556 112.14005064 219.08477556 112.14005064 219.88549805 116.81152344 C220.56524828 127.11418032 216.22068052 134.14894874 211.3125 142.8125 C210.48052409 144.32254435 209.65087634 145.83387361 208.82348633 147.34643555 C207.169543 150.36272037 205.50299112 153.37143301 203.82519531 156.37451172 C201.79316956 160.01959631 199.81771865 163.68956827 197.8671875 167.37890625 C187.91494588 186.19039469 176.8730636 204.24512254 164.5 221.5625 C163.96262207 222.31772949 163.42524414 223.07295898 162.87158203 223.85107422 C154.95344658 234.93194566 146.64608935 245.47182381 137.5 255.5625 C136.97631836 256.14257812 136.45263672 256.72265625 135.91308594 257.3203125 C127.2152271 266.92834976 118.44830327 276.21599546 108.296875 284.3203125 C106.49297178 285.76645838 104.70967676 287.23888093 102.953125 288.7421875 C70.44506294 316.42329489 31.02332864 329.8511144 -11.5 327.5625 C-30.31937922 325.57896646 -43.26842013 316.36059106 -55.4375 302.1796875 C-85.0403385 264.61547955 -90.67629656 215.51385077 -85.375 169.1875 C-78.77390782 117.4250801 -60.08043663 68.14978411 -37.35546875 21.47265625 C-36.08446608 18.84391753 -34.90794825 16.19794573 -33.80078125 13.49609375 C-33.53595947 12.85067627 -33.2711377 12.20525879 -32.99829102 11.5402832 C-32.31441141 9.84698391 -31.64844458 8.14647839 -30.984375 6.4453125 C-23.85522841 -7.40024061 -12.38418 -3.43080101 0 0 Z M-34.5 106.5625 C-26.95334113 122.89977249 -16.72083368 135.84593444 0.5 142.5625 C6.59730025 144.42538736 12.08270337 144.87057887 18.4375 144.8125 C19.70110352 144.82410156 19.70110352 144.82410156 20.99023438 144.8359375 C26.7694348 144.81814166 31.89892609 143.98678923 37.5 142.5625 C30.01859829 125.41001803 18.83381358 113.83006247 1.5 106.5625 C-10.08210136 102.76212299 -22.77770454 104.15792657 -34.5 106.5625 Z M64.5 155.5625 C71.87890328 171.82962769 82.43584043 185.03677627 99.5 191.5625 C111.54353505 195.2048053 124.55444593 196.03518049 136.5 191.5625 C132.42727351 178.25826012 122.40570748 166.00685009 110.12207031 159.33911133 C95.70028649 152.15351397 80.04586212 151.80194588 64.5 155.5625 Z M-44.5 180.5625 C-45.29538816 206.86922687 -41.68075907 233.2521811 -24.1875 254 C-14.59070249 263.99051228 -2.77932356 269.46961496 11.06591797 270.03369141 C35.62760203 270.34012815 59.36696262 257.4734859 77.5 241.5625 C77.5 241.2325 77.5 240.9025 77.5 240.5625 C76.20255859 240.67078125 76.20255859 240.67078125 74.87890625 240.78125 C46.98785149 242.83668085 14.84753063 245.02335673 -7.7578125 225.625 C-9.14322281 224.39352417 -10.51599758 223.14756892 -11.87109375 221.8828125 C-13.40948514 220.35260652 -13.40948514 220.35260652 -15.5 220.5625 C-15.74878906 219.99015625 -15.99757813 219.4178125 -16.25390625 218.828125 C-17.68452634 216.22699757 -19.37400362 214.44689409 -21.4375 212.3125 C-29.71562652 203.28667172 -36.43087024 192.81114421 -42.4765625 182.1875 C-42.81429687 181.65125 -43.15203125 181.115 -43.5 180.5625 C-43.83 180.5625 -44.16 180.5625 -44.5 180.5625 Z " fill="#0D0D0D" transform="translate(287.5,179.4375)"/>
<path d="M0 0 C0.68964844 -0.020625 1.37929687 -0.04125 2.08984375 -0.0625 C6.57948183 -0.09683758 9.47074941 0.25802889 12.875 3.25 C16.85912827 9.799148 18.86004995 17.00919925 21.0625 24.3125 C21.45270674 25.59325821 21.84317482 26.87393682 22.23388672 28.15454102 C23.25489718 31.51156803 24.26431721 34.87197099 25.27032471 38.23352051 C25.86175049 40.20581536 26.45735839 42.17679877 27.05419922 44.14746094 C37.71425619 79.40552184 49.39684691 118.103988 48.875 155.25 C44.65385864 154.64608112 40.83323547 153.66114845 36.8125 152.25 C26.04109094 148.47931369 16.65160204 148.08800197 5.875 152.25 C-8.69263778 159.40463793 -14.5256595 171.2729796 -20.85400391 185.4140625 C-22.75396271 189.65338663 -24.69057478 193.8757724 -26.62573242 198.09912109 C-27.61548723 200.26172164 -28.60140834 202.42608138 -29.58325195 204.59228516 C-30.03015381 205.57503418 -30.47705566 206.5577832 -30.9375 207.5703125 C-31.53498047 208.88926514 -31.53498047 208.88926514 -32.14453125 210.23486328 C-33.125 212.25 -33.125 212.25 -34.125 213.25 C-35.7895902 213.30084731 -37.45628881 213.28543663 -39.12109375 213.2421875 C-40.67280273 213.21705078 -40.67280273 213.21705078 -42.25585938 213.19140625 C-44.42531793 213.14783768 -46.59462998 213.09603235 -48.76367188 213.03515625 C-63.24641648 212.83884055 -75.26910758 217.83071191 -85.75 227.8203125 C-100.46858088 242.87780807 -109.03857007 263.33773682 -111.125 284.25 C-110.0828443 283.06292916 -109.04130907 281.87531359 -108 280.6875 C-107.35675781 279.9553125 -106.71351563 279.223125 -106.05078125 278.46875 C-104.88691287 277.12782254 -103.73472504 275.77645301 -102.60546875 274.40625 C-98.83258083 269.83305252 -94.70231565 266.0109791 -90.125 262.25 C-89.61904297 261.83169922 -89.11308594 261.41339844 -88.59179688 260.98242188 C-76.5031109 251.04283563 -62.60645025 239.64227691 -46.125 240.25 C-46.71243001 244.39147723 -47.65600166 248.06517163 -49.12890625 251.9765625 C-49.5360083 253.07653564 -49.94311035 254.17650879 -50.36254883 255.30981445 C-50.79978271 256.48632568 -51.2370166 257.66283691 -51.6875 258.875 C-59.34956824 279.94672065 -65.32623229 301.35428384 -69.67944336 323.35595703 C-70.125 325.25 -70.125 325.25 -71.125 327.25 C-92.20082357 324.31154383 -111.48814679 312.96619827 -128.125 300.25 C-128.99382812 299.59386719 -129.86265625 298.93773437 -130.7578125 298.26171875 C-147.65887986 285.13757802 -162.52210884 269.50820204 -175.125 252.25 C-175.91003906 251.19941406 -176.69507813 250.14882812 -177.50390625 249.06640625 C-203.30620782 214.16139449 -220.9686864 174.39989691 -236.41937256 134.09014893 C-237.08079473 132.36527937 -237.744656 130.64134568 -238.40869141 128.91748047 C-240.13488232 124.43570555 -241.85037618 119.95063894 -243.53515625 115.453125 C-244.48365754 112.92154191 -245.46584107 110.42265928 -246.49609375 107.921875 C-248.92130634 101.91338983 -250.68474911 95.71181774 -249.125 89.25 C-245.76757568 84.65962324 -242.33661787 81.76929547 -237.375 78.96484375 C-236.7290387 78.5869722 -236.08307739 78.20910065 -235.4175415 77.81977844 C-233.32585484 76.59866904 -231.22560968 75.39318244 -229.125 74.1875 C-226.93005074 72.91156074 -224.73747972 71.63160954 -222.54522705 70.3510437 C-221.09080996 69.50147292 -219.63569287 68.65309934 -218.17987061 67.80593872 C-212.49834957 64.49301109 -206.92617301 61.02666049 -201.375 57.5 C-184.22107194 46.72507568 -166.01348469 36.62404139 -147.125 29.25 C-146.41714355 28.96753418 -145.70928711 28.68506836 -144.97998047 28.39404297 C-104.45839684 12.33041023 -60.4900283 7.56126517 -17.62286377 1.60107422 C-15.46693575 1.298059 -13.31342728 0.98215474 -11.15991211 0.66259766 C-7.41599969 0.15361109 -3.77208917 0.02852241 0 0 Z M-66.125 124.25 C-64.62252669 128.52477889 -61.49061076 130.38639892 -57.8125 132.6875 C-57.18802979 133.08001953 -56.56355957 133.47253906 -55.92016602 133.87695312 C-43.88732449 141.22200962 -31.70994228 144.95864275 -17.625 142.25 C-5.66040297 139.04983067 3.72835097 132.33351147 12.875 124.25 C4.00375347 114.9820072 -9.10535626 107.03762663 -22.15625 106.01171875 C-39.69515932 105.63644929 -53.04822172 113.07375132 -66.125 124.25 Z M-156.6875 159.6875 C-164.71947426 168.91247908 -168.80210959 180.37007475 -171.125 192.25 C-153.70168928 192.88679105 -138.02551735 192.13090401 -123.984375 180.47265625 C-113.50073662 170.68926089 -108.96013538 158.72214224 -105.125 145.25 C-105.125 144.59 -105.125 143.93 -105.125 143.25 C-123.24677615 137.20940795 -144.15956625 146.94865828 -156.6875 159.6875 Z " fill="#0E0E0E" transform="translate(249.125,-0.25)"/>
<path d="M0 0 C-2.97 2.475 -2.97 2.475 -6 5 C-6.66 4.67 -7.32 4.34 -8 4 C-7.34 3.34 -6.68 2.68 -6 2 C-6.66 1.34 -7.32 0.68 -8 0 C-4.94736336 -0.98120464 -3.05263664 -0.98120464 0 0 Z " fill="#CACACA" transform="translate(370,419)"/>
</svg>
