<?xml version="1.0" encoding="UTF-8"?>
<svg version="1.1" xmlns="http://www.w3.org/2000/svg" width="746" height="746">
<path d="M0 0 C42.62257822 -1.23543705 80.78201016 16.71839574 111.546875 45.21875 C124.88429244 57.98778694 135.05280552 73.41815169 142.546875 90.21875 C143.08957031 91.40597656 143.63226562 92.59320313 144.19140625 93.81640625 C159.55586036 129.56307291 159.04968196 171.14665789 145.12109375 207.2578125 C139.39168932 221.26932631 131.91786607 234.34143892 122.546875 246.21875 C122.12325684 246.75661133 121.69963867 247.29447266 121.26318359 247.84863281 C111.79982688 259.71430836 101.16809165 270.5987562 89.2578125 280.01171875 C86.2427178 282.46637078 83.38913924 285.06915848 80.546875 287.71875 C75.91485765 292.02918238 71.12560702 296.06939843 66.1953125 300.0390625 C63.57412381 302.19632399 61.05533219 304.43186 58.546875 306.71875 C54.24695709 310.63766252 49.78767953 314.31045869 45.265625 317.96875 C42.62539771 320.15376569 40.0795778 322.41046391 37.546875 324.71875 C33.24160317 328.63572991 28.81841063 332.3640215 24.2734375 336 C22.45982787 337.47583133 20.68251698 338.99745092 18.9453125 340.5625 C14.27607886 344.6679562 10.98274458 347.10969135 4.65234375 347.0859375 C1.32193909 345.71423094 -0.65501196 343.24693014 -2.453125 340.21875 C-3.15312893 337.38898494 -3.17526085 334.66335036 -3.16015625 331.7578125 C-3.17527756 330.96724457 -3.19039886 330.17667664 -3.20597839 329.3621521 C-3.24870846 326.85572461 -3.25767852 324.35050476 -3.265625 321.84375 C-3.28878095 320.13668697 -3.31414858 318.42965243 -3.34179688 316.72265625 C-3.40450325 312.55458145 -3.43695326 308.38725457 -3.453125 304.21875 C-4.16629883 304.09870605 -4.87947266 303.97866211 -5.61425781 303.85498047 C-44.86285205 297.1581497 -75.97808384 284.59200554 -105.453125 257.21875 C-106.05769531 256.66832031 -106.66226563 256.11789062 -107.28515625 255.55078125 C-126.77173481 237.06819503 -139.71633672 210.88738854 -146.453125 185.21875 C-146.72213623 184.20699707 -146.72213623 184.20699707 -146.99658203 183.17480469 C-152.43689215 161.44597916 -151.618872 134.6251815 -145.453125 113.21875 C-145.26008789 112.49478027 -145.06705078 111.77081055 -144.86816406 111.02490234 C-134.40949773 72.32440222 -106.18663657 39.41498007 -71.828125 19.59375 C-49.37324379 7.11486053 -25.45328273 1.61242515 0 0 Z M-41.453125 81.21875 C-42.61288835 83.13351625 -42.61288835 83.13351625 -43.34985352 85.4699707 C-43.6693396 86.36186096 -43.98882568 87.25375122 -44.31799316 88.17266846 C-44.65262573 89.15338318 -44.9872583 90.1340979 -45.33203125 91.14453125 C-45.69655396 92.17431091 -46.06107666 93.20409058 -46.43664551 94.26507568 C-47.64307416 97.68257036 -48.82911125 101.1067956 -50.015625 104.53125 C-50.8551609 106.91972728 -51.6962476 109.30765998 -52.53881836 111.69506836 C-54.07402375 116.04830563 -55.6053746 120.40283683 -57.13062382 124.75956821 C-61.12377176 136.16236721 -65.2110366 147.53108697 -69.30065918 158.89956665 C-70.50738397 162.25831226 -71.71001963 165.61849195 -72.91113281 168.97924805 C-76.21475156 178.2208151 -79.52675389 187.4575186 -82.9375 196.66015625 C-83.43255773 198.00565021 -83.92728617 199.35126538 -84.42163086 200.69702148 C-85.28343652 203.03540317 -86.1557277 205.36996275 -87.04125977 207.69946289 C-87.40018311 208.67778076 -87.75910645 209.65609863 -88.12890625 210.6640625 C-88.5916394 211.89406982 -88.5916394 211.89406982 -89.0637207 213.14892578 C-89.75894263 215.51724626 -89.75894263 215.51724626 -87.453125 218.21875 C-83.73194622 219.74995275 -79.54743312 219.43961746 -75.578125 219.46875 C-74.88332031 219.489375 -74.18851563 219.51 -73.47265625 219.53125 C-68.7064215 219.56715384 -65.44136641 218.84587772 -61.453125 216.21875 C-60.08396696 214.45952414 -60.08396696 214.45952414 -59.390625 212.34375 C-59.08382812 211.56257812 -58.77703125 210.78140625 -58.4609375 209.9765625 C-58.12835937 209.06648437 -57.79578125 208.15640625 -57.453125 207.21875 C-56.55873321 204.88486373 -55.66285454 202.55154681 -54.765625 200.21875 C-54.34925781 199.105 -53.93289063 197.99125 -53.50390625 196.84375 C-52.453125 194.21875 -52.453125 194.21875 -51.453125 193.21875 C-49.82637722 193.12534566 -48.19558449 193.10129829 -46.56616211 193.10522461 C-45.52515854 193.10530014 -44.48415497 193.10537567 -43.41160583 193.10545349 C-42.2793306 193.11061478 -41.14705536 193.11577606 -39.98046875 193.12109375 C-38.82768936 193.1225087 -37.67490997 193.12392365 -36.48719788 193.12538147 C-32.78831436 193.13099995 -29.08949036 193.14355558 -25.390625 193.15625 C-22.88997483 193.16126262 -20.38932371 193.16582594 -17.88867188 193.16992188 C-11.74346912 193.18097538 -5.59830131 193.19773148 0.546875 193.21875 C1.18455084 194.80710353 1.82164479 196.39569069 2.45849609 197.984375 C2.81334076 198.86899414 3.16818542 199.75361328 3.53378296 200.66503906 C4.3646013 202.75929092 5.17457387 204.8575526 5.9609375 206.96875 C6.36054687 208.04125 6.76015625 209.11375 7.171875 210.21875 C7.77902344 211.8584375 7.77902344 211.8584375 8.3984375 213.53125 C9.38768279 216.30780323 9.38768279 216.30780323 11.546875 218.21875 C15.78575958 219.61506887 20.06914587 219.40270363 24.484375 219.40625 C25.28294922 219.41849609 26.08152344 219.43074219 26.90429688 219.44335938 C31.24278205 219.45414269 34.5944002 219.23890379 38.546875 217.21875 C37.89763797 211.32643207 35.77391787 206.14984583 33.671875 200.65625 C32.76402367 198.24583143 31.85851486 195.83467102 30.95703125 193.421875 C30.70213425 192.73997604 30.44723724 192.05807709 30.18461609 191.35551453 C26.04918708 180.24608942 22.09835196 169.06883726 18.109375 157.90625 C11.69621654 139.97358519 5.24499262 122.05827571 -1.36132812 104.19580078 C-2.44559184 101.239291 -3.50749932 98.27565852 -4.5625 95.30859375 C-4.88573242 94.40705566 -5.20896484 93.50551758 -5.54199219 92.57666016 C-6.12243804 90.95508233 -6.69668793 89.33126365 -7.26269531 87.70458984 C-8.97979294 82.83750108 -8.97979294 82.83750108 -12.453125 79.21875 C-15.09494913 78.77234912 -15.09494913 78.77234912 -18.07421875 78.85546875 C-19.17443359 78.85611328 -20.27464844 78.85675781 -21.40820312 78.85742188 C-23.13200195 78.8815918 -23.13200195 78.8815918 -24.890625 78.90625 C-26.03595703 78.90302734 -27.18128906 78.89980469 -28.36132812 78.89648438 C-35.23425597 78.73607785 -35.23425597 78.73607785 -41.453125 81.21875 Z M57.546875 83.21875 C56.76556026 87.3436205 56.87512097 91.44781509 56.91577148 95.63476562 C56.90861618 96.9066423 56.90146088 98.17851898 56.89408875 99.48893738 C56.87557167 102.97466063 56.88851419 106.45961916 56.90817904 109.94531059 C56.92456488 113.59363571 56.91575276 117.24191237 56.91065979 120.89025879 C56.90613872 127.01696997 56.92200916 133.14337586 56.94995117 139.27001953 C56.98200345 146.35248211 56.98198759 153.43439409 56.9647364 160.51689577 C56.94887046 167.33105146 56.9556052 174.14500535 56.97267342 180.95915222 C56.9795446 183.85863112 56.97851088 186.7579483 56.97112846 189.65742493 C56.96204204 193.70617237 56.98600247 197.75406977 57.01342773 201.80273438 C57.00690186 203.00701584 57.00037598 204.2112973 56.99365234 205.45207214 C57.0063768 206.55404434 57.01910126 207.65601654 57.0322113 208.79138184 C57.03501822 209.74853844 57.03782515 210.70569504 57.04071712 211.69185638 C57.69860334 214.97622391 58.96186958 216.15191782 61.546875 218.21875 C65.12000495 219.40979332 68.09240822 219.42403823 71.859375 219.46875 C73.15488281 219.49453125 74.45039062 219.5203125 75.78515625 219.546875 C79.7759813 219.19876565 82.16647561 218.32574629 85.546875 216.21875 C86.80648205 213.69953589 86.67553572 211.97293419 86.68058777 209.1525116 C86.68485275 208.07997635 86.68911774 207.0074411 86.69351196 205.90240479 C86.69283218 204.12963165 86.69283218 204.12963165 86.69213867 202.32104492 C86.69549728 201.0803273 86.6988559 199.83960968 86.70231628 198.56129456 C86.71020513 195.15207643 86.71349487 191.7429192 86.71413207 188.33369613 C86.71508076 185.48836352 86.71875874 182.64303678 86.72230417 179.79770643 C86.73045317 173.0834777 86.73288805 166.36926239 86.73217773 159.6550293 C86.73157732 152.72954455 86.74212092 145.80413779 86.7579214 138.87867278 C86.77100123 132.93380148 86.77636142 126.98895564 86.77572232 121.04407007 C86.7754674 117.49313482 86.77831537 113.9422688 86.78890038 110.39134789 C86.80038836 106.42908057 86.79583179 102.46691993 86.78979492 98.50463867 C86.79822418 96.74097458 86.79822418 96.74097458 86.80682373 94.94168091 C86.80262924 93.86068619 86.79843475 92.77969147 86.79411316 91.66593933 C86.79465793 90.72922992 86.79520269 89.7925205 86.79576397 88.82742596 C86.5179521 85.91560092 85.88116859 83.81954989 84.546875 81.21875 C80.40356444 78.45654296 77.04092605 78.85106089 72.171875 78.84375 C71.32109375 78.81925781 70.4703125 78.79476562 69.59375 78.76953125 C68.76617188 78.76566406 67.93859375 78.76179688 67.0859375 78.7578125 C66.33521973 78.74959473 65.58450195 78.74137695 64.81103516 78.73291016 C61.24356171 79.49841287 59.9868797 80.42494299 57.546875 83.21875 Z " fill="#010101" transform="translate(580.453125,8.78125)"/>
<path d="M0 0 C2.22521811 -0.00378792 4.45043385 -0.00929185 6.67564392 -0.01637268 C12.68984269 -0.03027941 18.70375386 -0.01919245 24.71793652 -0.00266147 C31.02291757 0.01123328 37.32788268 0.00472418 43.63287354 0.00120544 C54.21444081 -0.00149238 64.79590725 0.01185652 75.37744141 0.03515625 C86.25085667 0.05909574 97.1241217 0.06614975 107.99755859 0.05566406 C121.1282927 0.04302412 134.25895157 0.04555481 147.38968658 0.06132317 C152.3958829 0.06707536 157.40202897 0.06700636 162.40822601 0.06225777 C168.30166276 0.05748113 174.19489198 0.06761838 180.08828926 0.08921242 C182.24898389 0.09477003 184.40969851 0.09525502 186.57039452 0.09025955 C189.52305003 0.08428973 192.47507459 0.09684452 195.42767334 0.11402893 C196.27943043 0.10801889 197.13118753 0.10200884 198.00875545 0.09581667 C205.32059812 0.17302761 211.93105689 1.79702664 217.50878906 6.89624023 C222.03776485 12.02408885 224.90310452 18.43701639 228.04614258 24.46240234 C250.01430928 66.51547896 280.4553488 93.68503794 322.41015625 115.20922852 C334.47732851 121.40670717 343.36324128 127.02312868 348.06327641 140.27544332 C349.6121538 146.06258585 349.47218946 151.80186342 349.42796326 157.75863647 C349.43186328 159.17367727 349.43750932 160.58871413 349.44473416 162.00374186 C349.45940661 165.86467244 349.44935691 169.72519174 349.43499744 173.58610868 C349.42384425 177.76072858 349.43584466 181.93529283 349.44483948 186.10990906 C349.45874519 194.27768622 349.45123516 202.44530837 349.43616389 210.6130781 C349.41926698 220.13433751 349.42251879 229.65555869 349.42625798 239.17682846 C349.43213184 256.17219747 349.41798446 273.16749233 349.39331055 290.1628418 C349.36939877 306.63520082 349.36230397 323.10746073 349.37280273 339.57983398 C349.38422663 357.53578098 349.38612324 375.49168216 349.37170464 393.44762862 C349.37017888 395.36448582 349.36865852 397.28134302 349.36714363 399.19820023 C349.36638582 400.14121593 349.365628 401.08423162 349.36484722 402.05582356 C349.36011518 408.68430085 349.36194822 415.31275762 349.36620903 421.94123459 C349.37114921 430.02655288 349.36509151 438.11177768 349.34531473 446.19707464 C349.33548097 450.31819869 349.33029496 454.43918077 349.33820724 458.56031227 C349.34531603 462.34045834 349.33833946 466.12031926 349.32060362 469.90042801 C349.3147073 471.89946623 349.32333117 473.89853147 349.33265013 475.89755666 C349.2158769 492.69288218 344.91961921 505.97889401 333.28222656 518.27905273 C320.75976423 530.09543924 306.36068572 532.81741827 289.68103027 532.75567627 C288.37688848 532.75879625 287.07274669 532.76191623 285.72908545 532.76513076 C282.13384749 532.7734333 278.53871654 532.7693743 274.94347835 532.76315832 C271.05657546 532.75861613 267.16969043 532.76562633 263.28279114 532.77111816 C255.67807444 532.779995 248.0733973 532.77809778 240.46867907 532.77229288 C234.28621956 532.76776966 228.10377111 532.76716634 221.92131042 532.76934052 C220.59966326 532.76980021 220.59966326 532.76980021 219.25131616 532.7702692 C217.46118581 532.77090867 215.67105546 532.7715571 213.88092512 532.77221438 C197.10871938 532.77791267 180.33653553 532.77136766 163.56433338 532.76061365 C149.18399124 532.7516786 134.8036814 532.75323078 120.42333984 532.76245117 C103.70970519 532.77316266 86.99608971 532.77736339 70.28245211 532.77122664 C68.49903647 532.77058957 66.71562084 532.76996083 64.9322052 532.76934052 C64.05481102 532.76903196 63.17741685 532.76872341 62.27343497 532.76840551 C56.10092033 532.76668121 49.9284179 532.76958796 43.75590515 532.77429962 C36.23008002 532.77991822 28.70429659 532.77837144 21.17847621 532.76773813 C17.34128963 532.76249459 13.50417248 532.76040215 9.66698647 532.76703644 C5.50209273 532.77412823 1.3373732 532.7656402 -2.82751465 532.75567627 C-4.03277754 532.76013771 -5.23804044 532.76459916 -6.47982645 532.7691958 C-20.87276576 532.70246703 -32.85263862 529.75079653 -44.07324219 520.50170898 C-45.08386719 519.77983398 -46.09449219 519.05795898 -47.13574219 518.31420898 C-55.16710351 511.48645767 -60.3953209 499.76892574 -62.07324219 489.50170898 C-62.16628315 486.95904604 -62.21105636 484.44438242 -62.20466995 481.90220356 C-62.20672259 481.14135052 -62.20877522 480.38049748 -62.21089005 479.59658828 C-62.21655986 477.03835973 -62.21510283 474.48018503 -62.21368408 471.92195129 C-62.21626773 470.07272695 -62.21928088 468.22350317 -62.22268748 466.37428015 C-62.23076079 461.2855736 -62.23254724 456.19688116 -62.23328495 451.10816896 C-62.23513492 445.62266624 -62.24268197 440.13717085 -62.24942017 434.65167236 C-62.26300626 422.65374675 -62.26902861 410.65582449 -62.27343082 398.65789247 C-62.27619272 391.1675899 -62.28042997 383.67728862 -62.284935 376.18698692 C-62.29712791 355.45205297 -62.30746263 334.71711997 -62.31081009 313.9821825 C-62.31103172 312.64150955 -62.31125351 311.30083659 -62.31147544 309.96016363 C-62.31169608 308.61626813 -62.31191656 307.27237262 -62.31213689 305.92847711 C-62.31257944 303.23242875 -62.31302655 300.53638039 -62.31347656 297.84033203 C-62.31358595 297.17186968 -62.31369534 296.50340734 -62.31380805 295.81468855 C-62.31743853 274.14067374 -62.3333586 252.46669238 -62.35666693 230.79269037 C-62.38126927 207.87347368 -62.39497639 184.95427042 -62.39617801 162.03503913 C-62.39709504 149.54305833 -62.40285452 137.05112134 -62.42099762 124.5591526 C-62.43639172 113.92239247 -62.44152312 103.28568967 -62.43325952 92.64892051 C-62.42935062 87.2219146 -62.43029441 81.79502418 -62.44431686 76.36803246 C-62.45704112 71.39802196 -62.45587113 66.42821391 -62.44372615 61.45820376 C-62.44176661 59.66208834 -62.44485944 57.86595866 -62.45357051 56.0698633 C-62.53096788 39.03020764 -59.52476282 26.57055905 -47.58496094 13.86108398 C-33.46916965 0.60146044 -18.29399309 -0.08892386 0 0 Z M-28.07324219 38.50170898 C-31.57038936 44.4106818 -32.19823483 48.973329 -32.20466995 55.78072739 C-32.20672259 56.51907692 -32.20877522 57.25742645 -32.21089005 58.01815021 C-32.21656916 60.50583013 -32.21510168 62.99345485 -32.21368408 65.48114014 C-32.21626719 67.27730442 -32.2192802 69.07346814 -32.22268748 70.86963105 C-32.23076703 75.8162378 -32.23254759 80.76283005 -32.23328495 85.70944262 C-32.23513384 91.04018577 -32.24268032 96.37092136 -32.24942017 101.70166016 C-32.26301061 113.36274455 -32.26902926 125.0238255 -32.27343082 136.6849165 C-32.27619194 143.96363333 -32.28042904 151.24234883 -32.284935 158.52106476 C-32.29712839 178.66662894 -32.3074277 198.81219206 -32.31081009 218.95775986 C-32.31102966 220.24748538 -32.31124922 221.53721091 -32.31147544 222.86601903 C-32.31169372 224.15886027 -32.311912 225.45170152 -32.31213689 226.78371978 C-32.31258036 229.40358337 -32.31302692 232.02344696 -32.31347656 234.64331055 C-32.31369799 235.9428581 -32.31391942 237.24240565 -32.31414756 238.58133343 C-32.31809646 259.64363378 -32.33555299 280.70589955 -32.35883608 301.76818654 C-32.38253772 323.38323038 -32.39501139 344.99825686 -32.39617801 366.61331391 C-32.39709541 378.75313083 -32.4028643 390.89290269 -32.42099762 403.03270721 C-32.43638254 413.36908129 -32.44152856 423.70539638 -32.43325952 434.04177973 C-32.42934738 439.31663713 -32.43031017 444.59137571 -32.44431686 449.86621857 C-32.45702176 454.69491741 -32.45588828 459.52340771 -32.44372615 464.35210612 C-32.44176324 466.09909106 -32.44487492 467.84609059 -32.45357051 469.59305498 C-32.46464701 471.96873148 -32.45718596 474.34366989 -32.44517899 476.71932602 C-32.44577607 478.03858448 -32.44637316 479.35784294 -32.44698834 480.71707892 C-31.76613088 487.61158089 -29.45286328 493.2596288 -24.21965647 497.90364027 C-17.0117269 503.27015635 -7.63676485 502.93480228 0.94470215 502.89611816 C2.22434263 502.90220927 3.50398311 502.90830037 4.82240057 502.91457605 C8.34926032 502.93088368 11.8758952 502.92867659 15.40277934 502.92320108 C19.21608223 502.92051956 23.02932668 502.93508344 26.84260559 502.94729614 C34.30294604 502.96830328 41.7632087 502.97289378 49.22357523 502.97110826 C55.28876412 502.96979855 61.35392882 502.97361538 67.41911316 502.98103333 C69.1688269 502.9831326 70.91854063 502.9852302 72.66825438 502.98732615 C73.53922898 502.98836967 74.41020358 502.9894132 75.30757135 502.99048835 C91.76217062 503.00937079 108.21672526 503.0083463 124.67133087 503.00151902 C139.71484979 502.99594178 154.7581985 503.01678028 169.80167764 503.04987949 C185.26288684 503.08363289 200.72401453 503.09878299 216.18526125 503.09416246 C224.85983249 503.09191987 233.53424631 503.09713065 242.20878601 503.12205505 C249.59194213 503.1430892 256.97485446 503.146639 264.35802066 503.12775546 C268.12243765 503.11861157 271.88640032 503.11741278 275.65078163 503.13811111 C279.73714447 503.16033094 283.82244129 503.14357085 287.90881348 503.12316895 C289.09073068 503.13568679 290.27264789 503.14820464 291.49038076 503.16110182 C300.08243763 503.06922873 307.08045147 501.24939208 313.36425781 495.12670898 C318.00147753 487.33617986 318.35462017 481.38671528 318.30097961 472.37982178 C318.30372222 471.03947994 318.30777602 469.69914026 318.31302327 468.35880589 C318.32358918 464.68621835 318.31549491 461.01387494 318.30427277 457.3412981 C318.29541964 453.37676258 318.30387736 449.41225861 318.31013489 445.44772339 C318.31961739 437.686506 318.31302843 429.92538166 318.30087195 422.16417119 C318.28724734 413.12911333 318.28889013 404.0940776 318.29100528 395.05901209 C318.29419417 378.94288673 318.28253171 362.8268056 318.26293945 346.71069336 C318.24392305 331.06419529 318.23685533 315.41774903 318.24243164 299.77124023 C318.24848487 282.73613847 318.24832171 265.70105947 318.23694581 248.6659596 C318.23573849 246.85088682 318.23453251 245.03581405 318.23332787 243.22074127 C318.23272433 242.3276566 318.23212079 241.43457192 318.23149896 240.51442407 C318.22761517 234.21242054 318.22801517 227.91042548 318.22991371 221.60842133 C318.23203234 213.93446426 318.2268365 206.26055263 318.21230016 198.58660838 C318.20504065 194.66930241 318.20099241 190.75206273 318.20554352 186.83475113 C318.20960438 183.25240205 318.20449914 179.67019014 318.19191744 176.08786193 C318.18757881 174.17071392 318.19309709 172.25355154 318.19890672 170.33640742 C318.19307453 169.206131 318.18724233 168.07585458 318.18123341 166.91132736 C318.18036663 165.93202594 318.17949985 164.95272451 318.17860681 163.94374728 C318.09207494 161.24440015 318.09207494 161.24440015 315.92675781 158.50170898 C312.17609342 157.25148752 308.6812243 157.35723344 304.77441406 157.35986328 C303.94308456 157.35638885 303.11175507 157.35291443 302.25523376 157.34933472 C300.44807606 157.34197996 298.64090934 157.33663308 296.83374023 157.33304405 C293.96558358 157.32586851 291.09759702 157.31019098 288.22949219 157.29170227 C280.07375509 157.23930381 271.9181086 157.19132278 263.76220703 157.17578125 C258.77241581 157.16564999 253.78304929 157.13619022 248.79342651 157.09446144 C246.8990298 157.08221371 245.00457292 157.0770187 243.11013794 157.07925987 C227.94526733 157.09277784 216.33838852 155.62404776 205.02050781 144.65405273 C197.30891965 136.43598314 194.78839384 127.9125194 194.75317383 116.84936523 C194.74648682 115.97738495 194.7397998 115.10540466 194.73291016 114.20700073 C194.71887532 112.31582019 194.7069763 110.42462286 194.69696236 108.53341675 C194.68053719 105.54109572 194.65730005 102.54889954 194.63206482 99.55664062 C194.56132039 91.04978662 194.50110316 82.54288269 194.44995117 74.03588867 C194.41817815 68.83111952 194.3769113 63.6264959 194.32975578 58.42184448 C194.313731 56.4379233 194.30141164 54.45396864 194.29284859 52.47000122 C194.28070814 49.69786776 194.25656495 46.92607736 194.22973633 44.15405273 C194.22914719 43.33315155 194.22855804 42.51225037 194.22795105 41.66647339 C194.23991354 36.23755237 194.23991354 36.23755237 191.92675781 31.50170898 C188.22817622 30.26884845 184.80950488 30.35693897 180.95785522 30.36126709 C180.13676447 30.35829597 179.31567371 30.35532485 178.46970141 30.35226369 C175.7084691 30.34356736 172.94728009 30.34206764 170.18603516 30.34057617 C168.21007189 30.33594856 166.23410952 30.33092398 164.25814819 30.32553101 C158.88186029 30.31239723 153.50558488 30.30595984 148.12928343 30.30152035 C144.77012304 30.29859046 141.41096607 30.29448576 138.0518074 30.29001617 C127.54126958 30.27633705 117.03073957 30.26667311 106.52019346 30.26281428 C94.38891566 30.25833603 82.25775067 30.2408006 70.12650716 30.21181369 C60.74973583 30.1901868 51.37299621 30.18010942 41.9962002 30.17877316 C36.39615904 30.17772562 30.79622385 30.1718288 25.19620895 30.15395355 C19.92506249 30.13745613 14.65410149 30.13532556 9.38293839 30.14409256 C7.45164238 30.14486211 5.52033635 30.14053113 3.58906555 30.13063431 C0.94501197 30.11788318 -1.69838796 30.12380874 -4.34243774 30.13421631 C-5.10014737 30.1261599 -5.85785699 30.1181035 -6.63852751 30.10980296 C-15.02901489 30.1866278 -22.16160713 32.44932071 -28.07324219 38.50170898 Z " fill="#030303" transform="translate(192.0732421875,210.498291015625)"/>
<path d="M0 0 C2.76171875 1.4765625 2.76171875 1.4765625 5.6875 3.625 C6.51000244 4.22018433 6.51000244 4.22018433 7.34912109 4.82739258 C9.24337541 6.2042998 11.1212208 7.60206324 13 9 C14.46668612 10.07525864 15.93416996 11.14942979 17.40234375 12.22265625 C21.45274413 15.19020488 25.49006528 18.17505967 29.52392578 21.16503906 C33.53296144 24.13604202 37.54683936 27.10045943 41.5625 30.0625 C42.34326904 30.6385498 43.12403809 31.21459961 43.9284668 31.80810547 C49.40719733 35.84363332 54.91545537 39.83651118 60.4375 43.8125 C71.03430455 51.45457007 71.03430455 51.45457007 76 55.125 C76.928125 55.80820313 77.85625 56.49140625 78.8125 57.1953125 C82.1426029 59.94264739 82.94967684 61.55428061 83.4375 65.875 C83.63021316 69.04544236 83.09013787 69.89489715 80.9765625 72.359375 C77.40821178 75.52499847 73.71944721 78.47012163 69.9375 81.375 C69.15310547 81.98150391 68.36871094 82.58800781 67.56054688 83.21289062 C60.91251788 88.33686554 54.19714642 93.36965023 47.46899414 98.38769531 C41.88077761 102.56331536 36.36269934 106.81842601 30.875 111.125 C24.72181248 115.93929 18.50193736 120.64891171 12.1875 125.25 C11.44032715 125.79930176 10.6931543 126.34860352 9.92333984 126.91455078 C1.36360347 133.09647361 1.36360347 133.09647361 -4.0625 132.875 C-7.43183675 131.87136778 -8.79520819 130.69474555 -11 128 C-12.4622988 125.0754024 -12.18427158 122.42669088 -12.24609375 119.1640625 C-12.27903563 117.77603544 -12.31224722 116.38801476 -12.34570312 115 C-12.39308212 112.81221962 -12.43750962 110.62446448 -12.47680664 108.43652344 C-12.51661387 106.32459475 -12.56813893 104.21319676 -12.62109375 102.1015625 C-12.6461499 100.83650879 -12.67120605 99.57145508 -12.69702148 98.26806641 C-12.9784745 95.23218401 -13.2158327 93.44838985 -15 91 C-20.18290869 89.67976349 -25.17590614 90.0345104 -30.4375 90.625 C-31.65336792 90.75878052 -31.65336792 90.75878052 -32.89379883 90.89526367 C-82.6601332 96.88448325 -125.9328761 119.26824688 -164 151 C-164.83917969 151.69351563 -165.67835938 152.38703125 -166.54296875 153.1015625 C-171.18242755 157.03209046 -175.08842517 161.35597889 -179 166 C-179.81210938 166.91265625 -180.62421875 167.8253125 -181.4609375 168.765625 C-220.43079302 212.88740343 -236.38785062 270.99808401 -234 329 C-230.80448758 380.36993962 -209.90050666 429.58357031 -176.83984375 468.80078125 C-172.07132407 474.50073153 -172.07132407 474.50073153 -171.5 478.5 C-172 482 -172 482 -174.125 484.5 C-177 486 -177 486 -179.8125 486.1875 C-198.84360249 479.09748143 -214.60294242 448.9246234 -224 432 C-224.4626123 431.17435547 -224.92522461 430.34871094 -225.40185547 429.49804688 C-233.38150903 415.13311244 -239.73395072 400.55939855 -245 385 C-245.28568848 384.17000488 -245.57137695 383.34000977 -245.86572266 382.48486328 C-249.49079524 371.80193389 -252.00361646 360.92005163 -254.25 349.875 C-254.49645264 348.67278809 -254.74290527 347.47057617 -254.99682617 346.23193359 C-258.10948033 330.30177202 -259.38777668 314.58547273 -259.3125 298.375 C-259.31067719 297.55127899 -259.30885437 296.72755798 -259.30697632 295.87887573 C-259.0516948 226.95536065 -230.77438598 162.85869532 -182.4375 114.1875 C-176.24811565 108.04750083 -169.9648424 102.25953305 -163 97 C-162.34902344 96.49436523 -161.69804687 95.98873047 -161.02734375 95.46777344 C-121.98044573 65.16975552 -73.30310804 45.48319521 -23.69897461 42.85839844 C-22.46739624 42.77380371 -22.46739624 42.77380371 -21.2109375 42.6875 C-20.13271729 42.63142578 -20.13271729 42.63142578 -19.03271484 42.57421875 C-16.01035189 41.7204357 -14.84430164 40.535148 -13 38 C-12.65329858 35.38133378 -12.53462583 33.17446514 -12.6015625 30.56640625 C-12.59682686 29.09830569 -12.59160347 27.63020664 -12.5859375 26.16210938 C-12.60067417 23.85999564 -12.6250612 21.55848611 -12.66015625 19.2565918 C-12.68688674 17.02578912 -12.67721159 14.797279 -12.6640625 12.56640625 C-12.69652573 11.54118614 -12.69652573 11.54118614 -12.72964478 10.49525452 C-12.70132185 7.74075355 -12.49916979 5.61185739 -10.72596741 3.43835449 C-7.12409338 0.29548311 -4.73549096 -0.8564846 0 0 Z " fill="#040404" transform="translate(267,46)"/>
<path d="M0 0 C1.21154247 -0.00967334 1.21154247 -0.00967334 2.44756055 -0.0195421 C3.32926128 -0.01644489 4.21096201 -0.01334769 5.11938095 -0.01015663 C6.5309916 -0.0169533 6.5309916 -0.0169533 7.97111964 -0.02388728 C11.1323857 -0.0365727 14.2934804 -0.03490822 17.45476913 -0.03325844 C19.71821439 -0.03924116 21.9816576 -0.04604611 24.24509811 -0.05361366 C30.40017166 -0.07130845 36.55518962 -0.07597055 42.71028614 -0.07724524 C47.84691226 -0.07914284 52.98352539 -0.08649892 58.12014651 -0.09358943 C69.54711401 -0.10895357 80.97404528 -0.11492616 92.40102044 -0.11357872 C93.08665302 -0.11349881 93.77228559 -0.1134189 94.47869492 -0.11333656 C95.5084022 -0.11321392 95.5084022 -0.11321392 96.55891165 -0.1130888 C107.67896985 -0.11227626 118.79889249 -0.13140526 129.91891149 -0.1596133 C141.34125922 -0.18835914 152.76351342 -0.20178656 164.18590331 -0.20042574 C170.59689889 -0.1999157 177.00774112 -0.20562251 183.41870499 -0.22678185 C189.44994017 -0.24614355 195.48087545 -0.24630256 201.5121212 -0.23174858 C203.72442246 -0.22965673 205.93674238 -0.23438368 208.14901161 -0.2464695 C211.17228334 -0.26191451 214.19452005 -0.25261811 217.21776962 -0.23720741 C218.09054747 -0.24749454 218.96332531 -0.25778167 219.86255097 -0.26838052 C225.67121421 -0.20307797 230.06330217 1.00046403 234.92254257 4.25726891 C238.46965959 7.89306385 239.20832484 10.82356676 239.42254257 15.75726891 C239.21534158 20.6833054 238.41069133 23.59024072 234.92254257 27.25726891 C229.25674355 31.20998415 225.10688411 31.83572467 218.28901291 31.7719326 C216.86130669 31.78235089 216.86130669 31.78235089 215.40475792 31.79297966 C212.22498019 31.81123207 209.04595001 31.80098999 205.86614609 31.79071617 C203.58255074 31.7977755 201.29896006 31.80652058 199.01537704 31.81682396 C192.81909435 31.83932576 186.623067 31.83637625 180.426759 31.82750249 C175.25269078 31.82239248 170.07867052 31.82968529 164.90460724 31.83697456 C152.00047589 31.85494793 139.09650293 31.84856033 126.19237893 31.83080476 C114.99487041 31.81610974 103.79763027 31.83073522 92.60015631 31.85957492 C81.09181164 31.88899368 69.58362051 31.89942618 58.07523674 31.89039272 C51.61843831 31.88546316 45.16184848 31.88768112 38.70507622 31.90818024 C32.63350452 31.92653366 26.56243158 31.92058203 20.49088669 31.89598083 C18.26407686 31.89097205 16.03722905 31.89446438 13.8104496 31.90712929 C10.76741226 31.92306603 7.72601606 31.90810195 4.68305588 31.88545799 C3.80454249 31.89729372 2.92602911 31.90912945 2.02089411 31.92132384 C-4.11815362 31.82869078 -8.34800844 30.23148522 -13.07745743 26.25726891 C-16.25094551 21.79455128 -16.85442577 17.57896989 -16.07745743 12.25726891 C-14.09120044 6.82119714 -11.13466139 4.01153402 -6.17214227 1.16397321 C-3.92499652 0.19127475 -2.43437244 0.00492862 0 0 Z " fill="#0C0C0C" transform="translate(224.07745742797852,533.7427310943604)"/>
<path d="M0 0 C0.95711026 -0.00367669 1.91422052 -0.00735338 2.90033412 -0.01114148 C6.12771424 -0.02221008 9.3550622 -0.02602753 12.5824585 -0.02983093 C14.88826094 -0.03609316 17.19406236 -0.04273975 19.49986267 -0.04974365 C25.77886896 -0.06717528 32.05786762 -0.07771121 38.33689213 -0.08594918 C42.25701341 -0.09109452 46.1771323 -0.09717045 50.09725189 -0.10346031 C60.94894268 -0.12033292 71.80063053 -0.13496797 82.65233231 -0.14220905 C85.46904756 -0.14411898 88.2857628 -0.14603931 91.10247803 -0.147995 C92.15261244 -0.14872061 92.15261244 -0.14872061 93.22396168 -0.14946087 C104.56535231 -0.15776144 115.90663748 -0.18309825 127.24798205 -0.21557567 C138.88946613 -0.24864102 150.53089117 -0.26632453 162.17242217 -0.26985329 C168.70970687 -0.27220761 175.24682493 -0.28121777 181.78406525 -0.30631447 C187.93344449 -0.32954019 194.08254671 -0.33385045 200.23195839 -0.32355309 C202.49025454 -0.32305628 204.74856407 -0.32941899 207.00681877 -0.34310913 C210.08780674 -0.36074326 213.16779145 -0.3537632 216.2487793 -0.34057617 C217.59207664 -0.35703004 217.59207664 -0.35703004 218.9625113 -0.37381631 C224.43041993 -0.31723977 227.53025729 0.5197679 231.87835693 4.14717102 C235.47945721 8.10838132 235.38447476 12.36503337 235.22601318 17.49092102 C234.5636255 22.55186063 232.12391631 25.10893855 228.3249197 28.27558136 C223.82249246 30.72053793 220.39744736 30.70594952 215.35835266 30.65510559 C214.40669737 30.66134555 213.45504208 30.66758552 212.47454876 30.67401457 C209.28931853 30.68995483 206.10485245 30.6773359 202.9196167 30.66474915 C200.63454746 30.67016982 198.34948172 30.67729217 196.06442261 30.68598938 C189.85987325 30.70423298 183.65558978 30.69715046 177.45103574 30.68447304 C170.95869811 30.67434962 164.46638332 30.68373701 157.9740448 30.6900177 C146.37138056 30.69776284 134.7688377 30.68532679 123.16619258 30.66498035 C112.65246279 30.64711395 102.1389097 30.6502104 91.62518311 30.6686554 C79.40929724 30.69007665 67.19353718 30.69802115 54.97763294 30.68620634 C48.51362074 30.67997061 42.04973017 30.679138 35.58572578 30.69235229 C29.50765626 30.70390944 23.42992026 30.69588701 17.35188675 30.67277527 C15.12143571 30.6674873 12.8909566 30.66900342 10.66051674 30.67782593 C7.61508084 30.68876122 4.57071277 30.67504126 1.52534485 30.65510559 C0.20218233 30.66848992 0.20218233 30.66848992 -1.14771074 30.68214464 C-6.95679022 30.60841696 -10.32664256 29.46309552 -15.12164307 26.14717102 C-18.11699116 22.99417302 -19.36128275 19.39637718 -19.55914307 15.08467102 C-18.9528226 9.62778683 -17.64846586 6.52503549 -13.55914307 2.83467102 C-9.06207271 -0.27868538 -5.32835444 -0.00108612 0 0 Z " fill="#060606" transform="translate(228.12164306640625,461.8528289794922)"/>
<path d="M0 0 C1.77483513 -0.01279495 1.77483513 -0.01279495 3.58552551 -0.02584839 C5.52749565 -0.02448883 5.52749565 -0.02448883 7.50869751 -0.02310181 C8.88870101 -0.02908751 10.26870115 -0.03589315 11.6486969 -0.04345703 C15.39462912 -0.06112009 19.14046996 -0.06581253 22.8864398 -0.0670886 C25.2276336 -0.06851059 27.56880419 -0.07278109 29.90999222 -0.07808304 C38.08011601 -0.09658433 46.25017456 -0.10475353 54.4203186 -0.10317993 C62.03210002 -0.1019785 69.64359789 -0.12308072 77.25530756 -0.15466726 C83.79387029 -0.18083212 90.33234043 -0.19154714 96.87095511 -0.19026911 C100.77464048 -0.18975954 104.67807385 -0.19544005 108.581707 -0.21662521 C112.25408803 -0.23601138 115.92597677 -0.23612996 119.59837532 -0.22159195 C121.58438123 -0.21850905 123.57038719 -0.23517767 125.55632019 -0.25247192 C136.40916871 -0.17589095 136.40916871 -0.17589095 141.20645142 4.26742554 C144.06153862 7.51631787 145.09301696 10.11039405 145.51895142 14.45492554 C145.14522011 19.01444744 144.25945411 22.77519368 141.20645142 26.26742554 C134.12227593 30.80138403 127.9942079 30.83297481 119.72549438 30.76913452 C118.37445515 30.77292336 117.0234198 30.77842804 115.6723938 30.7855072 C112.02365363 30.79940314 108.37538809 30.78833506 104.72667456 30.77179599 C100.89913963 30.75788955 97.0716307 30.7644117 93.24407959 30.76792908 C86.82016396 30.77062615 80.39643573 30.75719686 73.9725647 30.73397827 C66.55385714 30.70734895 59.13546232 30.70563045 51.71672332 30.71736664 C44.56621621 30.72815688 37.41582182 30.72194906 30.26532364 30.70781136 C27.22797087 30.70206462 24.19070096 30.70212381 21.15334702 30.70687675 C17.57614586 30.71165991 13.99928594 30.70149001 10.42214966 30.6799221 C8.48870472 30.67173277 6.55521501 30.67819137 4.62176514 30.68511963 C-2.59264077 30.62340468 -7.6538161 30.31994323 -13.04354858 25.07992554 C-16.05661779 20.23749288 -17.09527752 16.24542636 -16.23104858 10.57992554 C-12.98105775 3.09081622 -7.89661415 0.02573853 0 0 Z " fill="#050505" transform="translate(225.79354858398438,607.7325744628906)"/>
<path d="M0 0 C1.33794412 -0.00542872 2.67588226 -0.01255558 4.0138092 -0.02124023 C7.62754446 -0.03938783 11.24082005 -0.032442 14.85456276 -0.01972389 C18.64780482 -0.00955147 22.44100921 -0.01900129 26.23425293 -0.02526855 C32.60269185 -0.03253268 38.97094482 -0.02298986 45.33935547 -0.00390625 C52.68764444 0.01786027 60.03548938 0.01080801 67.3837676 -0.01121187 C73.70845622 -0.02940125 80.03301166 -0.03190699 86.35771799 -0.0214572 C90.12835874 -0.01524161 93.89879121 -0.01433291 97.66941833 -0.02760315 C101.21551086 -0.03921287 104.76103449 -0.03104387 108.30706596 -0.00802612 C110.21866462 -0.00026979 112.13031175 -0.01205117 114.04188538 -0.02453613 C121.04223684 0.04399428 125.6992887 0.72458888 131.64257812 4.51757812 C134.56838529 7.8643151 135.50927438 11.68813261 136.20507812 16.01757812 C135.46717236 20.60899176 133.71638224 24.02634382 130.64257812 27.51757812 C126.88797274 30.19176494 124.32042732 30.89440048 119.73550415 30.90525818 C118.55235123 30.91516281 117.3691983 30.92506744 116.15019226 30.93527222 C114.86071182 30.93077057 113.57123138 30.92626892 112.24267578 30.92163086 C110.86414538 30.92733626 109.48561969 30.93430118 108.10710144 30.94242859 C104.36937518 30.96035846 100.63188371 30.95919178 96.89412737 30.9534862 C93.77046153 30.95039348 90.64684074 30.95648786 87.52318132 30.96252495 C80.15148374 30.97656856 72.77990205 30.97501084 65.40820312 30.96362305 C57.8117429 30.9521471 50.21563595 30.96620885 42.61922228 30.99301952 C36.08995381 31.01519818 29.56079605 31.02180889 23.03149259 31.01594311 C19.13507147 31.01257685 15.23887667 31.01496609 11.34248734 31.03219414 C7.67663368 31.04769549 4.0113018 31.04367302 0.34546852 31.02488899 C-1.6343556 31.01946352 -3.61420332 31.03369373 -5.59397888 31.04858398 C-12.37649269 30.99247649 -16.90807809 30.71709364 -22.35742188 26.51757812 C-25.96214174 21.63376411 -26.18757782 16.37637986 -25.35742188 10.51757812 C-23.24239615 5.75877024 -20.54378317 3.58542887 -15.87095642 1.35023499 C-10.72434093 -0.35468079 -5.36860168 -0.03506367 0 0 Z " fill="#080808" transform="translate(236.357421875,388.482421875)"/>
<path d="M0 0 C0.66 0 1.32 0 2 0 C5.94265054 9.66079934 9.67131707 19.37467211 13.15234375 29.21142578 C13.89015744 31.29275833 14.6363316 33.37098108 15.3828125 35.44921875 C15.85727084 36.7836765 16.33124849 38.11830527 16.8046875 39.453125 C17.22733887 40.64067383 17.64999023 41.82822266 18.08544922 43.05175781 C19 46 19 46 19 49 C7.45 49 -4.1 49 -16 49 C-15.29135522 42.62219698 -14.51536704 37.73044689 -12.3828125 31.89453125 C-12.12498993 31.16683029 -11.86716736 30.43912933 -11.60153198 29.68937683 C-11.05972868 28.16603944 -10.51330087 26.64433943 -9.96240234 25.12426758 C-9.12449334 22.81110129 -8.30133776 20.49308938 -7.48046875 18.17382812 C-6.948768 16.68459161 -6.41624401 15.1956487 -5.8828125 13.70703125 C-5.51701584 12.68027031 -5.51701584 12.68027031 -5.14382935 11.63276672 C-3.6790362 7.60447656 -1.98940496 3.79591421 0 0 Z " fill="#090909" transform="translate(554,127)"/>
<path d="" fill="#FEFFF9" transform="translate(0,0)"/>
<path d="" fill="#F9FFFB" transform="translate(0,0)"/>
</svg>
